<svg width="466.699219" height="52.705078" viewBox="0 0 466.699 52.7051" fill="none" xmlns="http://www.w3.org/2000/svg" xmlns:xlink="http://www.w3.org/1999/xlink">
	<desc>
			Created with Pixso.
	</desc>
	<defs/>
	<path id="The Dragon News" d="M362.84 3.1Q359.97 1.25 354.84 0L334.36 9.75L334.36 16.28Q332.46 15.02 331.23 14.61Q330 14.17 328.56 14.17Q327.45 14.17 326.45 14.5Q325.94 14.66 325.45 14.91Q324.31 15.43 322.99 16.87L323.7 17.84Q325.4 16.66 327.07 16.66Q328.91 16.66 330.85 17.81Q332.81 18.95 333.57 20.36Q334.36 21.73 334.36 24.11Q332.43 22.82 331.28 22.44Q330.14 22.03 328.79 22.03Q327.43 22.03 326.27 22.5Q326.08 22.58 325.89 22.67Q324.57 23.29 322.99 24.9L323.7 25.92Q324.75 25.13 325.45 24.9Q326.36 24.6 327.77 24.6Q329.51 24.6 330.94 25.27Q332.23 25.87 333.28 27.01Q334.54 28.38 335.03 30.96Q333.95 30.32 332.93 30Q331.93 29.67 330.99 29.67Q329.68 29.67 328.59 30.15Q328.33 30.27 328.09 30.41Q326.8 31.11 325.48 32.75L326.3 33.48Q328.24 32.05 329.94 32.05Q331.39 32.05 332.58 32.6Q333.5 33.03 334.27 33.8Q335.08 34.6 335.53 35.56Q336.06 36.73 336.06 38.14Q336.06 39.76 335.32 40.92Q335.14 41.2 334.92 41.45Q334.22 42.22 333.36 42.52Q332.81 42.71 332.19 42.71Q331.46 42.71 329.44 42.27Q326.13 41.54 324.05 41.54Q322.33 41.54 320.85 42.13Q317.92 43.32 315.93 46.84L316.75 47.57Q318.22 46.58 319.27 46.2Q320.36 45.82 321.73 45.82Q322.67 45.82 323.49 45.96Q323.87 46.05 326.89 46.93Q329.94 47.84 330.58 47.95Q331.03 48.05 331.48 48.1Q332.15 48.19 332.84 48.19Q333.66 48.19 334.46 48.07Q336.44 47.78 338.32 46.78Q340.98 45.41 342.65 43.33Q344.35 41.22 344.82 39.19Q345.32 37.17 345.32 32.46L345.32 27.3Q347.75 25.95 349.54 25.45Q351.35 24.93 353.4 24.93Q355.86 24.93 358.06 25.69L358.06 25.69Q360.26 26.42 362.93 28.18Q360.82 32.84 356.57 40.13Q353.99 44.58 352.99 47.57L354.17 48.16Q355.95 45.32 357.86 44.17Q359.76 43.03 362.72 43.03Q365.33 43.03 369.31 44.38L374.35 34.95L372.94 34.42Q371.48 37.23 371.04 37.7Q370.72 38.04 370.35 38.12Q370.24 38.14 370.13 38.14Q369.58 38.14 368.49 37.93Q367.44 37.7 365.91 37.7Q365.76 37.7 365.61 37.7Q362.22 37.77 358.85 39.25Q365.74 30.08 366.53 28.85Q368.76 25.42 369.72 22.58Q370.63 19.98 370.71 17.36Q370.72 17.11 370.72 16.87Q370.72 15.06 370.32 13.35Q369.82 11.2 368.7 9.19Q368.58 8.98 368.46 8.78Q366.48 5.45 362.84 3.1ZM44.29 1.34L43.21 0.58Q41.66 2.78 40.6 3.39Q39.58 3.98 37.61 3.98Q34.68 3.98 26.89 2.69Q19.1 1.4 16.02 1.4Q11.6 1.4 8.14 3.1Q6.03 4.12 4.43 5.66Q3.4 6.64 2.57 7.85Q0.99 10.16 0 14.32L1.08 14.97Q2.1 11.71 3.48 10.07Q4.89 8.43 7.38 7.47Q9.87 6.47 11.92 6.59L15.61 6.79Q11.98 9.34 9.99 11.45Q6.85 14.82 5.24 18.51Q4.47 20.27 4.07 22.12Q3.63 24.13 3.63 26.25Q3.63 30.26 5.09 33.42Q6.59 36.59 8.9 38.81Q11.06 40.89 13.64 42.11Q13.82 42.19 14 42.27Q15.04 42.73 16.11 43.09Q20 44.38 24.31 44.38Q29.97 44.38 34.27 42.15Q37.06 40.69 39.19 38.56Q40.34 37.41 41.3 36.06Q43 33.69 44.29 29.76L43.21 29.23Q40.95 33.22 38.32 35.36Q35.68 37.47 31.23 38.81L31.23 9.19Q33.28 9.37 34.71 9.37Q37.41 9.37 39.46 8.43Q41.5 7.48 42.56 5.88Q42.58 5.85 42.59 5.83Q43.68 4.18 44.29 1.34ZM113.96 0.87L112.58 0.87Q112.76 4.01 113.7 5.83Q114.04 6.47 114.51 6.99Q115.35 7.91 116.63 8.43Q119.29 9.49 123.01 9.49Q126.53 9.49 131.36 8.99Q126.09 12.12 124.21 15.02Q122.37 17.9 122.37 22.5Q122.37 23.75 122.43 25.45Q121.49 25.16 120.67 25.01Q119.88 24.87 119.2 24.87Q117.27 24.87 115.79 25.68Q115.5 25.85 115.22 26.04Q113.58 27.21 112.58 29.73L113.52 30.67Q114.66 29.29 115.34 28.85Q115.71 28.61 116.12 28.5Q116.45 28.41 116.8 28.41Q117.1 28.41 117.39 28.47Q118.6 28.69 119.64 29.85Q120.15 30.4 120.45 31.04Q120.93 32.04 120.93 33.28Q120.93 33.75 120.87 34.22Q120.62 36.06 119.41 37.76Q117.89 39.9 113.11 43.24L113.96 44.38Q123.42 38.17 125.91 34.89Q127.13 33.27 127.75 31.44Q128.4 29.54 128.4 27.42L128.17 17.02Q128.17 14.41 129.34 12.74Q130.54 11.04 134.12 8.99L134.88 8.99Q133.5 11.27 133.06 13.03Q132.65 14.79 132.65 18.51Q132.65 20.62 132.71 22.58Q132.77 25.4 132.77 26.83Q132.77 30.79 131.3 33.36Q129.87 35.91 125.33 39.16Q120.79 42.42 114.78 45.52L115.63 46.64Q120.26 44.09 124.39 42.94Q128.52 41.77 133.35 41.77Q140.47 41.77 149.79 44.38Q152.87 41.74 158.58 38.14Q158.23 23.67 157.73 19.42Q157.03 13.35 154.89 9.9Q153.38 7.46 151.23 5.91Q150.33 5.26 149.32 4.77Q145.92 3.1 141.06 3.1Q139.45 3.1 132.92 3.36Q122.1 3.77 120.08 3.77Q116.92 3.77 115.51 2.95Q115.37 2.87 115.24 2.78Q114.37 2.15 113.96 0.87ZM59.41 3.1L59.12 2.4Q56.98 2.69 55.34 3.48Q53.7 4.27 51.91 5.97Q50.39 4.62 49.45 4.1Q48.51 3.54 46.96 3.1L46.64 3.8Q48.54 4.89 49.18 6.24Q49.83 7.58 49.83 11.22L49.83 37.88L47.51 40.19L52.73 44.38L57.89 40.19L55.81 38.11L55.81 21.79L60.82 17.72Q62.46 18.77 63.07 19.86Q63.48 20.65 63.48 22.7L63.48 34.98Q63.48 41.74 62.98 43.35Q62.31 45.49 60.11 47.4Q57.91 49.3 52.32 51.62L52.73 52.7Q59.61 50.27 64.07 46.93Q67.47 44.41 68.73 41.54Q69.52 39.78 69.52 35.97L69.52 22.7Q69.52 18.51 68.64 16.78Q67.76 15.02 64.86 13.15L55.81 20.36L55.81 10.81Q55.81 7.5 56.57 5.97Q57.33 4.45 59.41 3.1ZM433.94 13.15L425.24 20.21Q424.99 18.35 424.11 16.86Q423.97 16.61 423.8 16.37C423.06 15.26 421.91 14.18 420.35 13.15L411.82 20.03Q411.68 18.07 411.27 17.02Q411.07 16.53 410.83 16.07Q410.2 14.86 409.24 13.82Q407.28 11.66 407.1 11.33Q406.93 11 406.84 10.65Q406.75 10.32 406.75 9.96Q406.75 7.88 409.92 5.68L409.39 4.92Q405.55 6.79 404.03 8.67Q403.36 9.48 402.98 10.41Q402.51 11.59 402.51 12.97C402.51 13.87 402.65 14.67 402.94 15.38Q403.38 16.4 404.64 17.87Q405.43 18.77 405.58 19.36Q405.76 19.92 405.76 22.52L405.76 33.63Q405.76 36.47 405.2 37.47L405.19 37.48Q404.66 38.44 403.35 38.96L403.35 39.66Q406.49 39.84 409.13 40.92Q411.79 41.98 414.69 44.38Q417.8 41.25 420.9 41.25Q424.21 41.25 429.17 44.38Q431.33 42.48 433.44 41.3Q435.55 40.13 438.63 39.16L438.63 21.41Q438.63 18.69 437.49 16.64Q436.67 15.11 433.94 13.15ZM350.12 18.01Q348.1 17.37 345.32 15.76L345.32 6.53Q347.84 5.77 349.92 5.77Q353.03 5.77 355.75 6.8Q357.31 7.39 358.74 8.32Q361.07 9.81 362.6 11.9Q363.64 13.33 364.3 15.02Q361.31 17.05 359.06 17.84Q358.93 17.88 358.81 17.92Q356.69 18.63 354.34 18.63Q352.27 18.63 350.35 18.08Q350.24 18.05 350.12 18.01ZM17.34 6.94L18.89 7.08L18.89 28.97Q18.89 32.4 18.42 33.51Q17.95 34.62 15.82 36.41Q12.14 33.58 10.47 29.85Q9.08 26.75 9.08 23.02Q9.08 22.05 9.18 21.09Q9.58 17.3 11.57 13.68Q13.41 10.31 17.34 6.94ZM340.4 8.7L343.97 6.94L343.97 32.19Q343.97 37.11 343.21 39.16Q343.09 39.5 342.94 39.81Q342.15 41.42 340.48 42.59Q339.14 43.56 336.12 43.79Q338.64 42.07 339.52 40.19Q340.4 38.32 340.4 33.92L340.4 8.7ZM24.96 8.11Q27.09 8.55 29.88 8.93L29.88 39.16Q27.33 39.49 26.04 39.49Q23.61 39.49 20.97 38.78Q19.45 38.37 16.99 37.17Q21.91 33.25 23.55 31.43Q24.46 30.38 24.69 29.56Q24.96 28.71 24.96 25.63L24.96 8.11ZM465.29 27.56L458.52 24.02L464.15 16.84Q465.64 14.94 466.17 13.74C466.52 12.93 466.69 12.11 466.69 11.27Q466.69 10.2 466.18 9.51Q466.11 9.4 466.02 9.31Q465.53 8.73 464.93 8.59Q464.75 8.55 464.56 8.55Q464.42 8.55 464.29 8.58Q463.83 8.67 463.44 9.11Q463.38 9.17 463.33 9.24Q462.94 9.74 462.94 10.54Q462.94 11.51 464.09 12.53Q464.67 13.06 464.67 13.59Q464.67 13.63 464.67 13.68Q464.62 14.42 463.77 15.11Q462.86 15.82 461.22 15.82Q459.72 15.82 458.08 15.38Q455.8 14.73 452.05 13.15Q450.46 15.17 448.74 16.34Q447.04 17.49 444.02 18.42L444.02 29.35L450.43 32.81L446.66 37.82L443.99 41.13Q443.14 42.12 442.79 42.48Q442.17 43.06 442.17 43.41Q442.17 43.74 442.5 44.06Q442.82 44.38 443.14 44.38Q443.49 44.38 444.28 43.76Q445.28 42.99 446.4 42.57Q447.7 42.09 449.18 42.09Q450.96 42.09 452.54 42.59Q454.16 43.09 456.32 44.38Q458.84 42.07 460.84 41.1Q462.83 40.13 465.29 39.9L465.29 27.56ZM134.61 12.71Q135.05 11.13 136.31 8.99L138.16 8.99L138.16 36.41L136.49 36.38Q134.23 36.35 129.96 37.06Q132.3 34.57 133.15 32.84Q134.26 30.52 134.26 28.3L134.03 16.75C134.03 15.5 134.22 14.16 134.61 12.71ZM142.76 21.97Q141.44 21.5 139.65 20.24L139.65 8.99Q145.48 8.99 148.33 11.33Q151.17 13.65 151.72 20.24Q149.91 21.47 148.56 21.97Q147.21 22.44 145.66 22.44Q144.11 22.44 142.76 21.97ZM95.39 22.79L87.12 13.15Q82.26 15.64 80.94 16.25Q79.13 17.08 76.37 18.07L76.37 34.83Q76.37 37.7 76.02 38.58Q76.02 38.59 76.01 38.6Q75.69 39.44 74.7 40.01L74.7 40.75Q78.16 41.48 80.03 42.15Q81.91 42.83 84.81 44.38L94.3 37.76L93.66 36.88L89.06 40.01L82.26 37.32L82.26 31.99L95.39 22.79ZM184.95 18.45L180.52 13.15L173.93 18.89Q173.93 17.34 173.35 16.46Q172.44 15.05 169.95 13.15L163.77 18.45L164.47 19.3Q165.64 18.13 166.31 18.13Q166.39 18.13 166.46 18.14Q166.99 18.22 167.43 18.89Q167.95 19.62 167.95 21.88L167.95 33.83Q167.95 36.44 167.54 37.38Q167.16 38.29 165.87 39.19L165.87 39.84Q167.81 40.37 169.42 41.3Q171.06 42.24 173.46 44.38L180.96 38.37L180.29 37.44L177.27 39.84L173.93 37.44L173.93 20.36L176.83 17.72L180.52 22.38L184.95 18.45ZM210 14.82L208.94 14.41Q208.18 15.49 207.86 15.73Q207.53 15.93 206.92 15.93Q205.57 15.93 203.02 15.17C201.34 14.66 199.79 13.99 198.36 13.15Q196.63 14.96 194.55 15.58Q193.46 15.9 192.27 15.9Q191.71 15.9 190.57 15.79L190.16 16.61L193.68 24.11Q190.16 28.21 188.73 31.28Q188.37 32.05 188.13 32.86Q187.64 34.5 187.64 36.29Q187.64 40.28 192.65 44.38L201.56 37.35Q201.65 39.84 202.41 41.25Q203.17 42.62 205.43 44.38L211.96 38.99L211.31 38.02Q210.17 38.93 209.94 39.08Q209.56 39.25 209.2 39.25Q209.07 39.25 208.95 39.22Q208.43 39.11 208.03 38.49Q207.56 37.7 207.56 34.59L207.56 22.11Q207.56 19.89 207.97 18.6Q208.41 17.28 210 14.82ZM236.89 17.43L227.78 13.15Q226.8 13.77 225.77 14.31Q221.77 16.45 217.14 17.43L217.14 38.64L224.06 43.62L217.14 51.7L217.55 52.7Q222.62 51.32 226.49 51.32Q228.1 51.32 229.89 51.65Q231.68 52 233.64 52.7Q239.41 50 240.73 48.72Q241.95 47.54 242.06 46.27Q242.08 46.15 242.08 46.02Q242.08 44.61 239.53 41.36Q237.94 39.4 237.45 37.91Q237.07 36.76 237.07 33.54L237.07 20.24L242.34 21.26L242.34 14.67L236.89 17.43ZM266.71 39.34L266.71 17.43Q260.53 15.9 256.37 13.15Q252.56 16.4 247.2 18.19L247.2 34.27Q247.2 36.65 246.79 37.64Q246.5 38.4 245.39 39.34L245.68 39.93Q248.35 40.04 250.45 40.81Q253.24 41.8 257.49 44.38Q258.86 43.12 260.36 42.27Q262.32 41.13 266.71 39.34ZM295.13 17.63L290.33 13.15L281.77 19.95L281.77 18.95Q281.77 17.08 281.13 16.02C280.7 15.32 279.62 14.36 277.91 13.15L271.67 18.13L272.37 18.95Q273.54 18.04 274.13 18.04Q274.19 18.04 274.25 18.05Q274.73 18.13 275.12 18.8Q275.77 19.92 275.77 23.11L275.77 38.08L273.48 40.19L278.7 44.38L283.88 40.19L281.77 38.08L281.77 21.41L286.52 17.63L289.71 20.39L289.71 36.53Q289.71 39.69 290.39 41.13Q291.09 42.53 293.52 44.38L299.82 39.22L299.12 38.32Q297.59 39.46 297.18 39.46Q297.13 39.46 297.08 39.45Q296.67 39.39 296.33 38.84Q295.72 37.91 295.72 35.97L295.72 22.06Q295.72 19.8 296.3 18.51Q296.74 17.54 298.79 15.67L297.97 14.88L295.13 17.63ZM399.9 22.79L391.64 13.15Q386.77 15.64 385.45 16.25Q383.64 17.08 380.88 18.07L380.88 34.83Q380.88 37.7 380.53 38.58Q380.53 38.59 380.52 38.6Q380.2 39.44 379.21 40.01L379.21 40.75Q382.67 41.48 384.55 42.15Q386.42 42.83 389.32 44.38L398.81 37.76L398.17 36.88L393.57 40.01L386.77 37.32L386.77 31.99L399.9 22.79ZM349.68 24.02Q347.9 24.49 345.32 25.72L345.32 17.31Q348.19 18.83 350.27 19.45Q351.6 19.82 352.95 19.96Q353.71 20.03 354.49 20.03Q356.48 20.03 358.34 19.53Q358.78 19.42 359.2 19.27Q361.49 18.51 364.71 16.46Q365.03 18.01 365.03 19.24Q365.03 20.97 364.62 22.88Q364.21 24.78 363.39 26.86Q360.76 25.07 358.47 24.31Q356.22 23.55 353.58 23.55Q351.5 23.55 349.68 24.02ZM82.26 16.72L82.67 16.52L89.97 24.6L82.26 30L82.26 16.72ZM386.77 16.72L387.18 16.52L394.48 24.6L386.77 30L386.77 16.72ZM191.54 16.93L201.56 20L201.56 27.5L195.11 24.49L191.54 16.93ZM223.09 17.43L231.12 20.18L231.12 35.39L227.46 39.78L223.09 36.62L223.09 17.43ZM453.95 28.12L449.94 26.04L449.94 17.78Q452.9 19.88 456.03 20.14Q456.48 20.18 456.94 20.18Q458.37 20.18 460.34 19.62L453.95 28.12ZM411.82 36.5L411.82 21.5L416.27 17.84Q418.15 19.04 418.68 20.06Q419.2 21.09 419.2 23.61L419.2 39.58L411.82 36.5ZM425.24 36.35L425.24 21.7L429.81 17.87Q431.83 19.42 432.24 20.24Q432.68 21.03 432.68 23.2L432.68 39.49L425.24 36.35ZM260.77 39.63L253.12 36.5L253.12 18.16Q254.61 18.42 255.67 18.8Q257.16 19.33 260.77 21L260.77 39.63ZM143.05 28.35Q141.64 28.76 139.65 29.91L139.65 21.85Q141.12 22.85 142.64 23.34Q143.89 23.75 145.15 23.83Q145.43 23.84 145.72 23.84Q147.33 23.84 148.68 23.43Q150.05 22.99 151.93 21.85L152.43 29.79Q150.49 28.71 149.12 28.33Q147.74 27.91 146.13 27.91Q144.46 27.91 143.05 28.35ZM194.47 25.4L201.56 28.71L201.56 35.91L197.13 39.49Q194.43 37.55 193.42 34.96Q192.83 33.43 192.83 31.66Q192.83 28.97 194.47 25.4ZM447.92 38.17L454.98 28.71L459.34 31.05L459.34 39.55Q455.71 37.32 452.34 37.32Q451.43 37.32 450.32 37.52Q449.2 37.73 447.92 38.17ZM145.45 37.23Q143.23 36.79 139.65 36.5L139.65 31.61Q141.5 30.32 142.93 29.82Q144.4 29.32 146.1 29.32Q147.77 29.32 149.17 29.82Q150.61 30.32 152.49 31.61Q152.54 34.07 152.54 34.42Q152.54 34.57 152.49 38.99Q147.71 37.64 145.45 37.23ZM228.45 46.78Q226.11 46.78 222.3 47.4L231.12 37.32Q231.34 38.9 231.92 40.34Q232.32 41.35 232.91 42.3Q234.31 44.58 238.27 48.28L237.07 49.04Q234.87 47.9 232.7 47.34Q230.56 46.78 228.45 46.78Z" fill="#444444" fill-opacity="1.000000" fill-rule="evenodd"/>
</svg>
